<mxfile host="65bd71144e">
    <diagram id="ClKegWBTUmph5_3FWSJC" name="Components">
        <mxGraphModel dx="552" dy="1502" grid="1" gridSize="10" guides="1" tooltips="1" connect="1" arrows="1" fold="1" page="1" pageScale="1" pageWidth="827" pageHeight="1169" math="0" shadow="0">
            <root>
                <mxCell id="0"/>
                <mxCell id="1" parent="0"/>
                <mxCell id="2" style="edgeStyle=none;html=1;entryX=0;entryY=0.5;entryDx=0;entryDy=0;" parent="1" source="3" target="6" edge="1">
                    <mxGeometry relative="1" as="geometry">
                        <Array as="points">
                            <mxPoint x="300" y="230"/>
                        </Array>
                    </mxGeometry>
                </mxCell>
                <mxCell id="3" value="&amp;lt;App/&amp;gt;" style="rounded=0;whiteSpace=wrap;html=1;" parent="1" vertex="1">
                    <mxGeometry x="240" y="120" width="120" height="60" as="geometry"/>
                </mxCell>
                <mxCell id="4" style="edgeStyle=none;html=1;entryX=0;entryY=0.5;entryDx=0;entryDy=0;" parent="1" source="6" target="17" edge="1">
                    <mxGeometry relative="1" as="geometry">
                        <Array as="points">
                            <mxPoint x="420" y="310"/>
                        </Array>
                    </mxGeometry>
                </mxCell>
                <mxCell id="5" style="edgeStyle=none;html=1;entryX=0;entryY=0.5;entryDx=0;entryDy=0;" parent="1" source="6" target="11" edge="1">
                    <mxGeometry relative="1" as="geometry">
                        <Array as="points">
                            <mxPoint x="420" y="130"/>
                        </Array>
                    </mxGeometry>
                </mxCell>
                <mxCell id="6" value="&amp;lt;GogaRouter/&amp;gt;" style="rounded=0;whiteSpace=wrap;html=1;" parent="1" vertex="1">
                    <mxGeometry x="360" y="200" width="120" height="60" as="geometry"/>
                </mxCell>
                <mxCell id="7" style="edgeStyle=none;html=1;entryX=0;entryY=0.5;entryDx=0;entryDy=0;" parent="1" source="8" target="3" edge="1">
                    <mxGeometry relative="1" as="geometry"/>
                </mxCell>
                <mxCell id="8" value="Redux" style="rounded=0;whiteSpace=wrap;html=1;" parent="1" vertex="1">
                    <mxGeometry x="80" y="120" width="120" height="60" as="geometry"/>
                </mxCell>
                <mxCell id="9" style="edgeStyle=none;html=1;entryX=0;entryY=0.5;entryDx=0;entryDy=0;" parent="1" source="11" target="12" edge="1">
                    <mxGeometry relative="1" as="geometry">
                        <Array as="points">
                            <mxPoint x="540" y="50"/>
                        </Array>
                    </mxGeometry>
                </mxCell>
                <mxCell id="10" style="edgeStyle=none;html=1;entryX=0;entryY=0.5;entryDx=0;entryDy=0;" parent="1" source="11" target="13" edge="1">
                    <mxGeometry relative="1" as="geometry">
                        <Array as="points">
                            <mxPoint x="540" y="-30"/>
                        </Array>
                    </mxGeometry>
                </mxCell>
                <mxCell id="11" value="&amp;lt;Session/&amp;gt;" style="rounded=0;whiteSpace=wrap;html=1;" parent="1" vertex="1">
                    <mxGeometry x="480" y="100" width="120" height="60" as="geometry"/>
                </mxCell>
                <mxCell id="12" value="&amp;lt;SessionLogs/&amp;gt;" style="rounded=0;whiteSpace=wrap;html=1;" parent="1" vertex="1">
                    <mxGeometry x="600" y="20" width="120" height="60" as="geometry"/>
                </mxCell>
                <mxCell id="13" value="&amp;lt;SessionVnc/&amp;gt;" style="rounded=0;whiteSpace=wrap;html=1;" parent="1" vertex="1">
                    <mxGeometry x="600" y="-60" width="120" height="60" as="geometry"/>
                </mxCell>
                <mxCell id="14" value="&amp;lt;SessionGrid/&amp;gt;" style="rounded=0;whiteSpace=wrap;html=1;" parent="1" vertex="1">
                    <mxGeometry x="340" y="420" width="120" height="60" as="geometry"/>
                </mxCell>
                <mxCell id="15" style="edgeStyle=none;html=1;entryX=0.5;entryY=0;entryDx=0;entryDy=0;" parent="1" source="17" target="14" edge="1">
                    <mxGeometry relative="1" as="geometry">
                        <Array as="points">
                            <mxPoint x="540" y="370"/>
                            <mxPoint x="400" y="370"/>
                        </Array>
                    </mxGeometry>
                </mxCell>
                <mxCell id="16" style="edgeStyle=none;html=1;entryX=0.5;entryY=0;entryDx=0;entryDy=0;exitX=0.5;exitY=1;exitDx=0;exitDy=0;" parent="1" source="17" target="18" edge="1">
                    <mxGeometry relative="1" as="geometry">
                        <Array as="points">
                            <mxPoint x="540" y="370"/>
                            <mxPoint x="700" y="370"/>
                        </Array>
                    </mxGeometry>
                </mxCell>
                <mxCell id="17" value="&amp;lt;MainDashBoard/&amp;gt;" style="rounded=0;whiteSpace=wrap;html=1;" parent="1" vertex="1">
                    <mxGeometry x="480" y="280" width="120" height="60" as="geometry"/>
                </mxCell>
                <mxCell id="18" value="&amp;lt;Status/&amp;gt;" style="rounded=0;whiteSpace=wrap;html=1;" parent="1" vertex="1">
                    <mxGeometry x="640" y="420" width="120" height="60" as="geometry"/>
                </mxCell>
            </root>
        </mxGraphModel>
    </diagram>
</mxfile>